<?xml version="1.0" encoding="utf-8"?>
<!-- Generator: Adobe Illustrator 18.0.0, SVG Export Plug-In . SVG Version: 6.00 Build 0)  -->
<!DOCTYPE svg PUBLIC "-//W3C//DTD SVG 1.1//EN" "http://www.w3.org/Graphics/SVG/1.1/DTD/svg11.dtd">
<svg version="1.1" id="Layer_1" xmlns="http://www.w3.org/2000/svg" xmlns:xlink="http://www.w3.org/1999/xlink" x="0px" y="0px"
	 viewBox="0 0 449.8 148.8" enable-background="new 0 0 449.8 148.8" xml:space="preserve">
<g>
	<path fill="#1B1212" d="M8.7,84.1c0.5-1.3,0.4-2.6,0.6-4c1.6-10.5,5.7-19.9,12.2-28.2c7.8-10.1,17.8-17.3,29.9-21.4
		c5.8-2,11.7-2.9,17.8-3c0.6,0,1.1,0,1.7,0.1c0.5,0,0.9,0.1,1.1,0.7c0.1,0.6-0.3,0.8-0.7,1.1c-1.5,0.8-3,1.3-4.6,1.7
		c-4.3,1.1-8.6,2.2-12.6,4.1C37.1,42.9,26.4,56,22.5,74.5c-1.2,5.9-1.7,11.8-1.3,17.7c0.5,6.6,3.1,12.4,7.3,17.5
		c5.2,6.3,11.9,10.7,19.2,14.2c9.3,4.4,19.1,7.2,29.2,9.3c6.7,1.3,13.4,2.3,20.1,2.9c1.8,0.2,3.7,0.2,5.5,0.3c0.3,0,0.6,0,0.9,0.1
		c0.4,0.1,0.8,0.1,0.8,0.6c0,0.5-0.3,0.6-0.7,0.7c-0.8,0.1-1.5,0.3-2.3,0.4c-6.3,0.6-12.6,0.7-19,0.5c-3.8-0.1-7.6-0.2-11.4-0.5
		c-12.6-0.9-25-2.7-36.5-8.5c-8.7-4.4-15.8-10.4-20.5-19c-2.8-5.1-4.4-10.6-4.9-16.4c0-0.2,0.1-0.5-0.2-0.6
		C8.7,90.5,8.7,87.3,8.7,84.1z M70.3,28.6c-4.2,0.1-8.3,0.4-12.4,1.3C46.7,32.3,37,37.7,28.8,45.5c-4.4,4.2-8.1,9-11.1,14.3
		c-5,8.8-7.6,18.4-7.9,28.5c-0.1,3.4,0.2,6.7,0.9,10c2,10.3,7.2,18.5,15.5,24.9c5.2,4,11,6.9,17.3,9c6.4,2.2,13,3.4,19.7,4.2
		c5.9,0.7,11.9,1,17.9,1.3c5.3,0.2,10.5,0,15.8-0.2c0.2,0,0.6,0.1,0.7-0.4c-1.5,0.1-2.8-0.1-4.2-0.3c-6.1-0.7-12.1-1.6-18.1-2.9
		c-11.1-2.4-21.9-5.6-31.9-11.1c-6.5-3.6-12.4-8-16.8-14.1c-3.7-5.2-6-11-6.3-17.4c-0.2-4.7,0.2-9.3,0.9-14
		c0.9-6.3,2.7-12.3,5.6-17.9c3.5-7,8.4-12.9,14.6-17.7c6.8-5.3,14.4-9.1,22.9-11C66.2,30.2,68.3,29.6,70.3,28.6z"/>
	<path fill="#1B1212" d="M377.6,145.9c-0.6-1.1-0.8-2.3-0.9-3.5c-0.3-5.6-0.7-11.2-1.2-16.7c-1-10.1-2-20.3-4.9-30.1
		c-1.6-5.6-4.2-10.6-8-15.1c-3.5-4.1-8-6-13.3-5.8c-7.6,0.2-13.4,3.7-17.8,9.8c-7.2,10.1-12.1,21.2-14.4,33.4
		c-0.9,4.7-1.3,9.5-1.5,14.3c0,1.2,0.1,2.4,0.1,3.6c0,0.5-0.1,0.9-0.2,1.4c-0.3,1.1-0.9,1.9-2.1,2c-1.1,0.1-2-0.6-2.4-1.8
		c-0.5-1.6-0.6-3.2-0.6-4.9c-0.1-2.9,0-5.8,0.2-8.7c0.4-4.2,0.9-8.4,1.5-12.5c0.7-4.8,2.2-9.3,4-13.7c2.8-6.8,6.4-13.1,10.8-19.1
		c3.7-5.1,9-8.1,14.9-10.1c11.8-4,22.2,0.8,29.1,9.5c4.6,5.7,7,12.3,8.5,19.4c1.6,7.6,2.4,15.4,2.6,23.2c0.2,6,0.1,11.9-0.8,17.8
		c-0.4,2.7-0.9,5.5-2.3,8C378.5,145.9,378,145.9,377.6,145.9z M378.3,144.6c0.4-0.3,0.4-0.6,0.5-0.9c1.5-4.4,2-9,2.2-13.7
		c0.2-6.5,0.1-13-0.6-19.5c-0.5-5-1.2-9.9-2.3-14.7c-1.9-8.4-5.4-15.8-11.9-21.6c-5.4-4.8-11.8-7.4-19-6.1
		c-8.4,1.4-15.6,5.1-20.5,12.6c-6.8,10.2-12.2,20.9-13.7,33.3c-0.8,6.5-1.7,13.1-1.3,19.7c0.1,1.1,0.1,2.2,0.4,3.3
		c0.2,0.6,0.6,1.1,1.3,1c0.8,0,1-0.6,1.2-1.2c0.1-0.3,0-0.5,0-0.8c0-2.7,0-5.4,0.2-8.2c0.3-3.4,0.7-6.9,1.3-10.2
		c1.8-9.8,5.5-18.8,10.4-27.4c2.6-4.5,5.5-8.9,9.8-12.1c5.1-3.8,10.9-5.2,17.3-4.1c5.1,0.9,8.6,3.9,11.5,7.9
		c3.8,5.3,6.3,11.3,7.7,17.7c1.2,5.5,2,11.1,2.7,16.7c0.4,2.9,0.7,5.8,0.9,8.8c0.3,3.3,0.6,6.6,0.9,9.9c0.2,2.6,0.3,5.3,0.5,7.9
		C377.9,143.5,377.9,144.1,378.3,144.6z"/>
	<path fill="#1B1212" d="M441,117.8c-0.4,0.2-0.2,0.6-0.3,0.9c-1,4.9-4,8.3-7.9,11c-5.8,3.9-12.3,6.1-19.1,7.5
		c-4.5,0.9-9.1,1.1-13.6,0.2c-6.2-1.3-10-5.6-12.1-11.4c-0.7-2-1.1-4.1-1-6.3c0-0.7,0.2-1.4,0.5-2c0.4-0.8,1.1-1.3,2-1.1
		c0.9,0.2,1.6,0.7,1.7,1.8c0.5,5,2.8,8.6,7.7,10.3c1.7,0.6,3.4,0.9,5.2,0.9c7.7,0,15.3-1.1,22.2-4.8c0.7-0.4,1.4-0.9,2.1-1.3
		c5.2-3.3,5.6-8.7,4-13.1c-1.3-3.6-3.9-6.3-6.8-8.6c-3.9-3-8.1-5.5-12.1-8.3c-2.3-1.7-4.7-3.4-6.7-5.4c-5.3-5.3-6.2-10.5-3.6-17.5
		c2.1-5.6,7.5-8.2,12.3-8.4c2.9-0.1,5.8,0.4,8.7,0.5c1.7,0.1,2.8,1,2.8,2.2c0,1.5-1.5,2.9-3.1,3.1c-0.6,0.1-1.2-0.1-1.8-0.3
		c-4.6-1.6-9.7-0.1-12.7,3.8c-3.2,4.1-1.7,11.1,3.2,14c3.8,2.3,7.6,4.7,11.3,7.2c4.2,2.9,8.3,5.9,12,9.5c2.8,2.7,4.6,5.8,4.9,9.7
		c0,0.1,0.1,0.1,0.2,0.2C441,113.8,441,115.8,441,117.8z M406.3,136.6c1.3,0,2.6,0.2,3.8,0c7.2-1,14.1-3.1,20.4-6.8
		c2.6-1.6,5-3.4,6.8-5.9c2.6-3.7,3.1-7.9,2.5-12.3c-0.3-2.2-0.9-4.4-2.3-6.3c-1.5-1.9-3.2-3.6-5-5.1c-5.8-5-12.2-9.1-18.8-13
		c-2.9-1.7-5.5-3.7-6.4-7.1c-1-3.5-0.9-6.9,1.6-9.9c1.2-1.4,2.6-2.5,4.3-3.3c3-1.5,6.2-1.6,9.4-0.5c1,0.3,1.9,0.4,2.7-0.4
		c0.4-0.4,0.8-0.9,0.6-1.5c-0.2-0.6-0.8-0.8-1.4-0.9c-0.6-0.1-1.1-0.1-1.7-0.1c-2.6-0.1-5.2-0.8-7.9-0.4c-4.9,0.6-8.6,2.7-10.6,7.5
		c-2.5,6.1-2,11.3,2.8,16.1c3.4,3.4,7.5,6,11.4,8.7c3.8,2.6,7.8,4.9,11,8.3c3.2,3.4,5.1,7.3,4.7,12.2c-0.2,2.4-0.9,4.6-2.8,6.4
		c-2.1,2.1-4.6,3.6-7.3,4.7c-3.8,1.6-7.8,2.5-11.9,3.1c-4,0.5-8.1,0.9-12.1-0.1c-5.6-1.3-9.2-5-9.8-11c-0.1-0.7-0.2-1.3-0.9-1.4
		c-0.8-0.1-1,0.6-1.1,1.2c-0.4,1.5,0,3,0.2,4.4c1,6.7,6.7,12.2,12.3,13.1C402.6,136.7,404.4,136.7,406.3,136.6z"/>
	<path fill="#1B1212" d="M79.6,2.9c1.5,0.2,3.1,0.5,4.6,0.7c9.7,1.5,18.3,5.6,25.9,11.7c4.9,3.9,9,8.5,12.7,13.6
		c0.8,1.1,1.4,2.2,1.5,3.5c0.1,1.2-0.5,1.7-1.7,1.2c-1.2-0.5-2.2-1.4-3.2-2.3c-4.6-4.4-9.5-8.5-15-11.8c-7.4-4.4-15.4-7.3-24.1-8.4
		c-12.2-1.6-24,0.4-35.5,4.5c-3.2,1.1-6.3,2.5-9.5,3.7c-0.6,0.2-1.2,0.4-1.9,0.5c-0.4,0.1-0.8,0-1.1-0.4c-0.3-0.4,0-0.7,0.2-1
		c0.8-1,1.8-1.8,2.8-2.5c8.1-6.3,17.4-9.7,27.3-11.8c2.4-0.5,4.7-0.9,7.2-1c0.2,0,0.3,0,0.4-0.2C73.4,2.9,76.5,2.9,79.6,2.9z
		 M34,18.7c0.6-0.2,0.8-0.2,1-0.3c3.2-1.2,6.3-2.5,9.5-3.7c7.8-2.9,15.9-4.6,24.2-5c4.3-0.2,8.7,0,13,0.6c9,1.3,17.2,4.5,24.9,9.3
		c4.6,2.9,8.7,6.3,12.6,10c1.2,1.1,2.3,2.3,4.1,3.1c-0.1-1.3-0.5-2.3-1.2-3.1c-1.3-1.7-2.7-3.5-4.1-5.1c-5.7-6.5-12.3-12-20.2-15.6
		c-8-3.7-16.3-5.2-25.1-4.8C67.2,4.3,62,5.1,56.9,6.6c-7.3,2.2-14.3,5-20.3,9.8C35.8,17,34.9,17.6,34,18.7z"/>
	<path fill="#1B1212" d="M265.2,132.8c6.3,0,11.9-0.7,17.5-1.8c1.3-0.2,2.7-0.4,4-0.4c0.6,0,1.2,0.1,1.4,0.8c0.1,0.7-0.4,1.1-1,1.4
		c-2.5,1-5,1.8-7.6,2.6c-7.2,2.1-14.5,3.7-22,3.3c-4.4-0.2-8.6-1.3-12.1-4.4c-3.4-3-4.7-6.9-4.5-11.3c0.3-4.7,1.9-9.1,3.5-13.5
		c5.3-14.6,11.5-28.8,19-42.4c0.6-1.1,1.4-2.2,2.2-3.2c0.6-0.7,1.4-1.1,2.2-0.8c0.9,0.3,1,1.2,1,2c0,1.4-0.6,2.6-1.1,3.8
		c-4.3,10.8-9.2,21.3-13.6,32.1c-2.4,5.9-4.6,12-5.8,18.3c-0.4,2.3-0.7,4.6,0,6.8c0.5,1.7,1.7,3,3.2,3.9c2.4,1.5,5,2,7.7,2.4
		C261.5,132.8,263.6,132.8,265.2,132.8z M286.6,131.9c0-0.1-0.1-0.2-0.1-0.3c-5.6,0.7-11.2,1.9-16.9,2.1c-4.9,0.2-9.8,0.2-14.6-1.1
		c-2.6-0.7-5-1.8-6.5-4.2c-1.7-2.6-1.5-5.6-1.1-8.5c0.8-5.2,2.4-10.1,4.3-15c4.4-11.5,9.7-22.6,14.3-34c0.7-1.7,1.6-3.3,1.9-5.2
		c0.1-0.5,0.4-1.3-0.3-1.6c-0.6-0.3-1,0.5-1.4,0.9c-0.1,0.1-0.2,0.3-0.3,0.4c-1.4,1.9-2.5,4-3.6,6.1c-3.5,6.9-6.9,13.8-9.9,20.9
		c-3.2,7.6-6.4,15.3-8.8,23.2c-0.8,2.5-1.5,4.9-1.6,7.5c-0.3,6.2,3.2,11.1,9.2,13.1c5,1.7,10.1,1.6,15.2,0.8
		c4.9-0.7,9.7-1.9,14.4-3.4C282.7,133.3,284.6,132.6,286.6,131.9z"/>
	<path fill="#1B1212" d="M177.7,108.9c0.2-10.6,2.8-20.4,9.4-28.9c5.9-7.5,13.2-13.4,21.7-17.6c3.8-1.9,7.9-3.1,12.3-2.6
		c2.3,0.2,4.1,1.2,5.1,3.4c0.2,0.3,0.4,0.5,0.7,0.6c8.7,2.5,13.4,8.7,15.8,17c1.7,5.7,1.6,11.4,0.7,17.2c-1.3,8.6-4.1,16.5-8.7,23.8
		c-2.3,3.6-4.9,6.9-8.2,9.6c-4.6,3.8-10,6-15.9,7c-7.9,1.3-15.4-0.1-22.2-4.4c-3.8-2.4-6.2-6.1-8-10.2c-1.9-4.1-2.7-8.5-2.8-13
		C177.8,110,177.8,109.4,177.7,108.9z M205.4,137.6c1.8,0.1,3.5-0.2,5.3-0.5c8.5-1.6,15.5-5.6,20.7-12.6c5.2-6.9,8.6-14.6,10.4-23.1
		c0.8-3.7,1.3-7.6,1.4-11.4c0.1-2.7-0.4-5.4-1.1-8.1c-2.3-8.6-6.8-15.2-16-17.6c-0.3-0.1-0.5-0.2-0.7-0.5c-0.9-2.7-3.1-3.3-5.6-3.4
		c-3.8-0.1-7.3,1-10.6,2.7c-7.7,3.8-14.3,9-19.9,15.6c-2.4,2.9-4.6,6-6.2,9.4c-2.8,6.1-4.2,12.5-4.5,19.1c-0.2,4.7,0.4,9.4,2,13.9
		c1.5,4.2,3.7,8.1,7.3,10.8C193.2,136,199.1,137.5,205.4,137.6z"/>
	<path fill="#1B1212" d="M126.1,46.9c-0.2,6.2-0.5,12.3-1.1,18.5c-0.5,5.4-1,10.8-1.7,16.2c-0.9,7.1-2.1,14.2-3.6,21.3
		c-1.8,8.4-3.9,16.7-6.9,24.8c-0.5,1.3-1,2.6-1.7,3.9c-0.3,0.5-0.6,1-1.2,0.8c-0.6-0.2-0.5-0.8-0.5-1.3c0.1-2.3,0.7-4.5,1.2-6.7
		c1.6-7.3,2.9-14.6,4.1-22c1-6,2-12.1,2.9-18.1c0.9-5.9,1.8-11.9,2.6-17.8c0.9-6.2,1.8-12.3,2.7-18.5c0.4-2.5,0.6-4.9,1-7.4
		c0-0.3,0.1-0.5,0.2-0.8c0.1-0.4,0.4-0.6,0.7-0.6c0.4,0,0.6,0.3,0.7,0.6c0.1,0.6,0.3,1.2,0.4,1.8C126,43.3,126.2,45.1,126.1,46.9z
		 M124.7,42.2c-1.4,9.8-2.7,19.6-4.2,29.3c-1.5,9.8-3,19.6-4.6,29.5c-1.6,9.7-3.3,19.4-5.4,29c1.8-3.6,3-7.3,4-11.1
		c3.9-13.6,6.6-27.4,8.2-41.5c0.7-5.9,1.3-11.8,1.8-17.7c0.4-5.4,0.7-10.9,0.5-16.3C125,42.9,125.1,42.4,124.7,42.2z"/>
	<path fill="#1B1212" d="M121.2,119.1c0-11.9,8.6-22.4,20.3-24.9c2.3-0.5,4.5-0.7,6.9-0.4c0.6,0.1,1.4,0.1,1.6,0.9
		c0.2,0.9-0.6,1.2-1.2,1.4c-1,0.4-2.1,0.8-3.1,1.1c-9.4,2.8-14.9,9.3-17.3,18.5c-1.4,5.4-0.4,10.4,3.4,14.5c3,3.2,6.8,4.2,11,4.2
		c5.9-0.1,11.1-2.2,16.2-5c0.6-0.3,1.2-0.8,1.8-0.1c0.6,0.7,0.1,1.4-0.4,1.9c-0.9,0.9-1.9,1.6-3,2.3c-3.8,2.4-7.7,4.4-12.2,5.1
		c-9.2,1.3-20.9-3.1-23.4-15.1C121.3,122.1,121.2,120.6,121.2,119.1z M159.1,130.7c0,0,0.1-0.1,0.1-0.1
		C159.2,130.6,159.2,130.6,159.1,130.7c-0.1,0.1-0.2,0.1-0.3,0.2c-0.3,0-0.6,0.1-0.9,0.3c-4.1,2.1-8.4,3.7-13,4.2
		c-4.3,0.5-8.3-0.1-11.9-2.5c-4.9-3.2-7.4-10.1-6.1-16.3c0.9-4.6,2.8-8.7,5.8-12.2c3.3-3.8,7.1-6.8,12-8.1c1.2-0.3,2.4-0.6,3.6-1.2
		c-0.4-0.4-0.9-0.3-1.3-0.4c-1.6-0.1-3.1,0.1-4.7,0.5c-6.3,1.4-11.6,4.4-15.4,9.7c-3.8,5.3-5.6,11.2-4.4,17.7
		c1.7,9.6,9.1,14.5,18.1,15.2c5.2,0.4,10-1.3,14.4-4.1c1.4-0.9,2.8-1.5,3.9-2.8C159,130.9,159.1,130.8,159.1,130.7z"/>
	<path fill="#1B1212" d="M175.8,84.3c0.7,12.2-3.2,23.8-8.2,35.1c-0.5,1-1,2-1.5,2.9c-0.3,0.5-0.6,1.1-1.3,0.8
		c-0.7-0.3-0.5-1-0.3-1.5c0.7-2.3,1.4-4.5,2-6.8c2.7-9.7,4.4-19.6,4.6-29.7c0.2-7.9-0.5-15.7-3.3-23.2c-0.4-1.1-1.1-2.1-1.2-3.3
		c-0.1-1.1,0.2-2.1,1.3-2.5c1.4-0.6,2.5-0.3,3.3,0.8c1.2,1.7,1.8,3.6,2.3,5.6c1.5,5.7,2.2,11.5,2.3,17.4
		C175.8,81.3,175.8,82.6,175.8,84.3z M166.5,118.7c-0.2,0.1-0.2,0.3-0.2,0.5c0,0,0.1,0,0.1,0.1C166.5,119,166.5,118.9,166.5,118.7
		c0.2-0.1,0.2-0.2,0.3-0.4c1-1.7,1.5-3.6,2.3-5.4c3.5-8.3,5.6-16.9,5.7-26c0.1-2.8,0-5.6-0.2-8.4c-0.3-4.8-0.9-9.6-2-14.3
		c-0.5-2.1-1.1-4.2-2.2-6.1c-0.6-1.1-1.9-1.3-2.6-0.5c-0.7,0.7-0.3,1.5,0,2.3c2.9,6.4,3.9,13.2,4.2,20.1c0.2,4.8-0.1,9.7-0.6,14.5
		c-0.6,5.4-1.5,10.7-2.8,15.9c-0.6,2.6-1.3,5.3-2,7.9C166.5,118.3,166.5,118.5,166.5,118.7z"/>
	<path fill="#1B1212" d="M295,130.6c-0.1-3.9,0.1-8,0.3-12.2c0.3-7.7,0.7-15.3,1.1-23c0.1-2.1,1.5-3.5,3.2-3.5c1.7,0,2.7,1,2.7,2.8
		c0.1,2.2-0.4,4.4-0.6,6.6c-0.4,4-0.8,7.9-1.3,11.9c-0.5,4.7-1,9.4-1.5,14.2c-0.3,3.1-0.7,6.2-1,9.4c-0.1,0.6-0.2,1.1-0.6,1.5
		c-0.5,0.5-1.1,0.8-1.7,0.6c-0.7-0.2-0.7-0.9-0.7-1.4C295,135.3,294.8,133.1,295,130.6z M296.3,137.8c0.7-0.3,0.7-1,0.7-1.4
		c0.4-3,0.7-6,1-9c0.4-3.9,0.8-7.8,1.2-11.8c0.7-6.1,1.4-12.2,2-18.4c0.1-1,0.4-1.9,0.1-3c-0.5-1.4-1.7-1.8-2.9-0.8
		c-0.9,0.8-1,1.8-1.1,2.8c-0.3,4.8-0.5,9.6-0.7,14.3c-0.2,3.6-0.3,7.2-0.4,10.8c-0.1,4.5-0.2,9.1-0.3,13.6
		C295.9,135.9,295.9,136.9,296.3,137.8z"/>
	<path fill="#1B1212" d="M299.1,65.9c5.2,0,10,4.4,10,9.2c0,4.8-3.7,8.1-8.5,7.5c-4.8-0.6-7.8-4.9-6.8-9.6c0.1-0.2,0.3-0.5-0.1-0.7
		c-1.4-0.5-1-1.7-0.8-2.6c0.5-2.2,2.4-3.7,5-3.9C298.2,65.8,298.6,65.9,299.1,65.9z M301.4,81.6c3.9,0.3,6.8-2.9,6.6-6.6
		c-0.2-3-2.6-6.2-5.8-7.5c-2.1-0.8-4.1-0.8-6.1,0c-1.2,0.5-2.2,1.8-2.2,3c0,0.2-0.1,0.5,0.2,0.6c0.2,0.1,0.3-0.1,0.5-0.2
		c1.8-1.4,3.7-1.7,5.7-0.8c2.2,1,3.8,2.6,4.2,5.1c0.1,1-0.4,2.2-1.7,2.5c-1.7,0.4-4.1-0.7-5.2-2.4c-0.4-0.7-0.8-1.4-1.3-2
		c-0.5-0.7-1.1-0.6-1.4,0.2c-0.1,0.4-0.2,0.7-0.2,1.1C294.5,78.1,297.4,81.7,301.4,81.6z M295.2,71.7c1.1-0.1,1.6,0.4,2.1,1.1
		c0.4,0.6,0.8,1.2,1.2,1.8c0.7,1.1,1.8,1.8,3.1,2.1c1.3,0.3,2.1-0.5,1.8-1.8C302.5,71.9,298.4,69.2,295.2,71.7z"/>
	<path fill="#8C2E1C" d="M70.3,28.6c-2,1-4.1,1.6-6.3,2.1c-8.5,1.9-16.1,5.7-22.9,11c-6.2,4.8-11,10.7-14.6,17.7
		c-2.8,5.7-4.7,11.6-5.6,17.9c-0.7,4.6-1.1,9.3-0.9,14c0.3,6.4,2.5,12.2,6.3,17.4c4.4,6.1,10.3,10.5,16.8,14.1
		c10,5.5,20.8,8.8,31.9,11.1c6,1.3,12,2.2,18.1,2.9c1.4,0.2,2.8,0.4,4.2,0.3c-0.1,0.5-0.4,0.4-0.7,0.4c-5.3,0.2-10.5,0.4-15.8,0.2
		c-6-0.3-11.9-0.6-17.9-1.3c-6.7-0.8-13.3-2-19.7-4.2c-6.2-2.1-12.1-5-17.3-9c-8.2-6.4-13.5-14.7-15.5-24.9c-0.6-3.3-1-6.7-0.9-10
		c0.3-10.1,2.9-19.7,7.9-28.5c3-5.3,6.7-10.1,11.1-14.3c8.3-7.9,17.9-13.2,29.1-15.7C61.9,29,66.1,28.7,70.3,28.6z"/>
	<path fill="#8C2E1C" d="M378.3,144.6c-0.4-0.5-0.4-1.2-0.5-1.7c-0.2-2.6-0.3-5.3-0.5-7.9c-0.3-3.3-0.6-6.6-0.9-9.9
		c-0.2-2.9-0.6-5.9-0.9-8.8c-0.7-5.6-1.5-11.2-2.7-16.7c-1.4-6.4-3.8-12.4-7.7-17.7c-2.9-4-6.5-7-11.5-7.9
		c-6.3-1.1-12.1,0.2-17.3,4.1c-4.3,3.2-7.2,7.5-9.8,12.1c-4.9,8.6-8.6,17.6-10.4,27.4c-0.6,3.4-1,6.8-1.3,10.2
		c-0.2,2.7-0.1,5.4-0.2,8.2c0,0.3,0,0.5,0,0.8c-0.2,0.6-0.4,1.2-1.2,1.2c-0.7,0-1.1-0.4-1.3-1c-0.4-1.1-0.4-2.2-0.4-3.3
		c-0.4-6.6,0.5-13.1,1.3-19.7c1.5-12.4,7-23,13.7-33.3c4.9-7.4,12.1-11.2,20.5-12.6c7.2-1.2,13.6,1.3,19,6.1
		c6.5,5.8,10,13.3,11.9,21.6c1.1,4.9,1.8,9.8,2.3,14.7c0.7,6.5,0.8,13,0.6,19.5c-0.1,4.6-0.7,9.2-2.2,13.7
		C378.7,144,378.7,144.4,378.3,144.6z"/>
	<path fill="#8C2E1C" d="M406.3,136.6c-1.9,0.1-3.8,0-5.6-0.3c-5.6-0.9-11.2-6.4-12.3-13.1c-0.2-1.5-0.6-2.9-0.2-4.4
		c0.2-0.6,0.3-1.3,1.1-1.2c0.7,0.1,0.9,0.7,0.9,1.4c0.6,6,4.2,9.7,9.8,11c4,0.9,8.1,0.6,12.1,0.1c4.1-0.5,8.1-1.4,11.9-3.1
		c2.7-1.2,5.2-2.7,7.3-4.7c1.8-1.8,2.5-3.9,2.8-6.4c0.4-4.8-1.5-8.7-4.7-12.2c-3.2-3.4-7.2-5.7-11-8.3c-4-2.7-8-5.3-11.4-8.7
		c-4.9-4.9-5.3-10-2.8-16.1c1.9-4.7,5.7-6.8,10.6-7.5c2.7-0.4,5.3,0.3,7.9,0.4c0.6,0,1.2,0,1.7,0.1c0.6,0.1,1.2,0.3,1.4,0.9
		c0.2,0.6-0.2,1.1-0.6,1.5c-0.8,0.8-1.7,0.7-2.7,0.4c-3.2-1.1-6.3-1-9.4,0.5c-1.6,0.8-3.1,1.8-4.3,3.3c-2.4,3-2.5,6.3-1.6,9.9
		c1,3.5,3.5,5.4,6.4,7.1c6.6,3.9,13,8.1,18.8,13c1.8,1.5,3.5,3.2,5,5.1c1.4,1.9,2,4,2.3,6.3c0.7,4.4,0.2,8.6-2.5,12.3
		c-1.8,2.5-4.2,4.4-6.8,5.9c-6.3,3.7-13.2,5.8-20.4,6.8C408.9,136.8,407.6,136.6,406.3,136.6z"/>
	<path fill="#8C2E1C" d="M34,18.7c0.9-1.1,1.8-1.7,2.6-2.3c6-4.8,13-7.6,20.3-9.8C62,5.1,67.2,4.3,72.5,4c8.8-0.4,17.1,1.1,25.1,4.8
		c8,3.6,14.5,9.1,20.2,15.6c1.4,1.6,2.8,3.4,4.1,5.1c0.7,0.9,1.1,1.9,1.2,3.1c-1.7-0.8-2.9-2-4.1-3.1c-3.9-3.7-8-7.1-12.6-10
		c-7.6-4.8-15.9-8-24.9-9.3c-4.3-0.6-8.6-0.8-13-0.6c-8.3,0.4-16.4,2.2-24.2,5c-3.2,1.2-6.4,2.5-9.5,3.7
		C34.8,18.5,34.6,18.5,34,18.7z"/>
	<path fill="#8C2E1C" d="M286.6,131.9c-1.9,0.7-3.9,1.4-5.8,2c-4.7,1.5-9.5,2.7-14.4,3.4c-5.1,0.7-10.2,0.9-15.2-0.8
		c-5.9-2-9.4-7-9.2-13.1c0.1-2.6,0.8-5,1.6-7.5c2.4-7.9,5.6-15.6,8.8-23.2c3-7.1,6.3-14.1,9.9-20.9c1.1-2.1,2.2-4.2,3.6-6.1
		c0.1-0.1,0.2-0.3,0.3-0.4c0.4-0.4,0.7-1.1,1.4-0.9c0.7,0.3,0.4,1,0.3,1.6c-0.3,1.8-1.2,3.5-1.9,5.2c-4.6,11.4-9.9,22.5-14.3,34
		c-1.9,4.9-3.4,9.8-4.3,15c-0.5,2.9-0.6,5.8,1.1,8.5c1.5,2.4,3.9,3.5,6.5,4.2c4.8,1.3,9.7,1.3,14.6,1.1c5.7-0.3,11.3-1.4,16.9-2.1
		C286.5,131.7,286.5,131.8,286.6,131.9z"/>
	<path fill="#8C2E1C" d="M205.4,137.6c-6.3-0.2-12.3-1.6-17.3-5.5c-3.6-2.7-5.8-6.6-7.3-10.8c-1.6-4.5-2.2-9.2-2-13.9
		c0.3-6.6,1.6-13.1,4.5-19.1c1.6-3.4,3.7-6.5,6.2-9.4c5.6-6.5,12.2-11.7,19.9-15.6c3.3-1.6,6.8-2.8,10.6-2.7
		c2.4,0.1,4.7,0.7,5.6,3.4c0.1,0.4,0.3,0.4,0.7,0.5c9.2,2.4,13.7,8.9,16,17.6c0.7,2.6,1.2,5.4,1.1,8.1c-0.1,3.8-0.6,7.6-1.4,11.4
		c-1.8,8.4-5.2,16.1-10.4,23.1c-5.3,7-12.3,10.9-20.7,12.6C209,137.5,207.2,137.7,205.4,137.6z M204.8,71.9
		c-0.4,0.2-0.5,0.2-0.6,0.3c-4.8,2.5-8.8,6-12.3,10.1c-5.8,6.9-8.8,14.8-9.2,23.8c-0.2,3.9,0.2,7.8,0.9,11.7c1,5.3,3.6,9.8,7.8,13.2
		c6.2,4.9,13.2,5.4,20.5,3.5c6.6-1.7,12-5.5,16.5-10.6c7.3-8.2,10.5-17.9,11-28.7c0.1-2.9-0.2-5.7-0.7-8.6
		c-0.9-5.2-2.8-9.8-6.9-13.4c-4.2-3.7-8.9-5.4-14.5-4.1c-3.7,0.8-6.9,2.4-10,4.6c-0.8,0.6-1.7,1.1-2.5,1.6c-0.3,0.2-0.8,0.6-1.2,0.2
		c-0.3-0.3,0-0.8,0.2-1.2C204.1,73.5,204.4,72.8,204.8,71.9z"/>
	<path fill="#8C2E1C" d="M124.7,42.2c0.4,0.3,0.2,0.8,0.3,1.2c0.2,5.5-0.1,10.9-0.5,16.3c-0.5,5.9-1.1,11.8-1.8,17.7
		c-1.6,14.1-4.3,27.9-8.2,41.5c-1.1,3.8-2.3,7.5-4,11.1c2.2-9.6,3.9-19.3,5.4-29c1.6-9.8,3.1-19.6,4.6-29.5
		C122,61.7,123.3,51.9,124.7,42.2z"/>
	<path fill="#8C2E1C" d="M158.9,130.9c-1.1,1.3-2.6,1.9-3.9,2.8c-4.4,2.8-9.1,4.5-14.4,4.1c-9-0.7-16.4-5.6-18.1-15.2
		c-1.1-6.5,0.7-12.4,4.4-17.7c3.8-5.3,9.1-8.3,15.4-9.7c1.5-0.3,3.1-0.5,4.7-0.5c0.4,0,0.9-0.1,1.3,0.4c-1.2,0.6-2.4,0.9-3.6,1.2
		c-4.9,1.3-8.8,4.3-12,8.1c-3,3.5-4.9,7.6-5.8,12.2c-1.3,6.2,1.3,13,6.1,16.3c3.6,2.4,7.6,3,11.9,2.5c4.6-0.5,8.9-2.1,13-4.2
		C158.3,131,158.6,130.9,158.9,130.9L158.9,130.9z"/>
	<path fill="#8C2E1C" d="M159.1,130.7c0,0,0.1-0.1,0.1-0.1C159.2,130.6,159.2,130.7,159.1,130.7
		C159.1,130.7,159.1,130.7,159.1,130.7z"/>
	<path fill="#8C2E1C" d="M158.9,130.9c0.1-0.1,0.2-0.1,0.3-0.2c0,0,0,0,0,0C159.1,130.8,159,130.9,158.9,130.9
		C158.9,130.9,158.9,130.9,158.9,130.9z"/>
	<path fill="#8C2E1C" d="M166.7,118.2c0.7-2.6,1.3-5.3,2-7.9c1.2-5.3,2.1-10.6,2.8-15.9c0.5-4.8,0.8-9.6,0.6-14.5
		c-0.3-6.9-1.3-13.7-4.2-20.1c-0.3-0.7-0.7-1.5,0-2.3c0.7-0.8,1.9-0.5,2.6,0.5c1.2,1.9,1.7,4,2.2,6.1c1.1,4.7,1.7,9.5,2,14.3
		c0.2,2.8,0.2,5.6,0.2,8.4c-0.2,9-2.2,17.7-5.7,26C168.3,114.7,167.8,116.6,166.7,118.2C166.8,118.2,166.7,118.2,166.7,118.2z"/>
	<path fill="#8C2E1C" d="M166.5,118.7c0,0.2-0.1,0.3-0.1,0.5c0,0-0.1,0-0.1-0.1C166.3,118.9,166.3,118.8,166.5,118.7L166.5,118.7z"
		/>
	<path fill="#8C2E1C" d="M166.5,118.7c0-0.2,0-0.4,0.2-0.5c0,0,0.1,0.1,0.1,0.1C166.8,118.4,166.7,118.6,166.5,118.7
		C166.5,118.7,166.5,118.7,166.5,118.7z"/>
	<path fill="#8C2E1C" d="M296.3,137.8c-0.4-0.9-0.4-1.9-0.4-2.8c0.1-4.5,0.1-9.1,0.3-13.6c0.1-3.6,0.3-7.2,0.4-10.8
		c0.2-4.8,0.4-9.6,0.7-14.3c0.1-1,0.2-2.1,1.1-2.8c1.1-1,2.4-0.6,2.9,0.8c0.3,1,0,2-0.1,3c-0.6,6.1-1.4,12.2-2,18.4
		c-0.4,3.9-0.8,7.8-1.2,11.8c-0.3,3-0.6,6-1,9C297,136.8,297,137.5,296.3,137.8z"/>
	<path fill="#8C2E1C" d="M301.4,81.6c-4,0.2-6.9-3.4-6.8-7c0-0.4,0.1-0.8,0.2-1.1c0.3-0.8,0.9-0.9,1.4-0.2c0.5,0.6,0.9,1.3,1.3,2
		c1.1,1.7,3.5,2.8,5.2,2.4c1.3-0.3,1.8-1.5,1.7-2.5c-0.4-2.5-1.9-4.1-4.2-5.1c-2-0.9-4-0.6-5.7,0.8c-0.1,0.1-0.3,0.3-0.5,0.2
		c-0.3-0.1-0.2-0.4-0.2-0.6c0-1.2,0.9-2.5,2.2-3c2.1-0.8,4.1-0.8,6.1,0c3.3,1.2,5.7,4.5,5.8,7.5C308.2,78.6,305.3,81.8,301.4,81.6z"
		/>
	<path fill="#1B1212" d="M204.8,71.9c-0.4,0.9-0.7,1.6-1,2.4c-0.1,0.4-0.5,0.8-0.2,1.2c0.3,0.3,0.8,0,1.2-0.2c0.9-0.5,1.7-1,2.5-1.6
		c3-2.1,6.3-3.7,10-4.6c5.6-1.3,10.3,0.4,14.5,4.1c4.1,3.6,6,8.2,6.9,13.4c0.5,2.8,0.8,5.7,0.7,8.6c-0.4,10.8-3.7,20.5-11,28.7
		c-4.5,5.1-9.9,8.8-16.5,10.6c-7.3,1.9-14.3,1.4-20.5-3.5c-4.2-3.4-6.8-7.8-7.8-13.2c-0.7-3.9-1.1-7.7-0.9-11.7
		c0.5-8.9,3.5-16.9,9.2-23.8c3.5-4.1,7.5-7.6,12.3-10.1C204.3,72.1,204.5,72.1,204.8,71.9z M202.5,74.4c-0.2,0.1-0.4,0.2-0.5,0.3
		c-15.9,10.7-21.3,27.6-16.8,44.8c2.8,10.9,13.5,16.8,24.6,14.3c8.1-1.8,14.5-6.2,19.4-12.7c8-10.5,10.5-22.4,8.3-35.4
		c-0.9-4.8-2.9-9.1-6.9-12.2c-3.7-3-7.7-4.6-12.5-3.6c-3.9,0.8-7.3,2.5-10.6,4.8c-1.1,0.8-2.1,1.5-3.4,1.9c-1,0.3-1.6-0.2-1.7-1.3
		C202.5,75.1,202.5,74.8,202.5,74.4z"/>
</g>
</svg>
